<!DOCTYPE svg PUBLIC "-//W3C//DTD SVG 1.1//EN" "http://www.w3.org/Graphics/SVG/1.1/DTD/svg11.dtd">
<!-- Uploaded to: SVG Repo, www.svgrepo.com, Transformed by: SVG Repo Mixer Tools -->
<svg width="800px" height="800px" viewBox="0 0 32 32" fill="none" xmlns="http://www.w3.org/2000/svg">
<g id="SVGRepo_bgCarrier" stroke-width="0"/>
<g id="SVGRepo_tracerCarrier" stroke-linecap="round" stroke-linejoin="round"/>
<g id="SVGRepo_iconCarrier"> <g clip-path="url(#clip0_901_3008)"> <path d="M31 6V11V16V21V26V31H12C18.07 31 23 26.07 23 20C23 13.93 18.07 9 12 9C10.23 9 8.56 9.42 7.08 10.16L7 10V1H31V6Z" fill="#ffffff"/> <path d="M12 9C18.07 9 23 13.93 23 20C23 26.07 18.07 31 12 31C5.93 31 1 26.07 1 20C1 15.7 3.48 11.97 7.08 10.16C8.56 9.42 10.23 9 12 9Z" fill="#FFC44D"/> <path d="M15 17C15 15.343 13.657 14 12 14M12 14C10.343 14 9 15.343 9 17C9 18.657 10.343 20 12 20C13.657 20 15 21.343 15 23C15 24.657 13.657 26 12 26M12 14V13M12 26C10.343 26 9 24.657 9 23M12 26V27M22 31H31V29M25 26H31V24M26 21H31V19M26 16H31V14M23 11H31V9M10 6H31V1H7V6M23 20C23 13.926 18.074 9 12 9C5.926 9 1 13.926 1 20C1 26.074 5.926 31 12 31C18.074 31 23 26.074 23 20Z" stroke="#000000" stroke-width="2" stroke-linecap="round" stroke-linejoin="round"/> </g> <defs> <clipPath id="clip0_901_3008"> <rect width="32" height="32" fill="white"/> </clipPath> </defs> </g>
</svg>