<!DOCTYPE svg PUBLIC "-//W3C//DTD SVG 1.1//EN" "http://www.w3.org/Graphics/SVG/1.1/DTD/svg11.dtd">
<!-- Uploaded to: SVG Repo, www.svgrepo.com, Transformed by: SVG Repo Mixer Tools -->
<svg fill="#ffffff" height="800px" width="800px" version="1.1" id="Layer_1" xmlns="http://www.w3.org/2000/svg" xmlns:xlink="http://www.w3.org/1999/xlink" viewBox="0 0 512 512" xml:space="preserve" stroke="#ffffff">
<g id="SVGRepo_bgCarrier" stroke-width="0"/>
<g id="SVGRepo_tracerCarrier" stroke-linecap="round" stroke-linejoin="round"/>
<g id="SVGRepo_iconCarrier"> <g> <g> <path d="M442.413,7.435C439.315,2.805,434.098,0,428.522,0C413.333,0,96.663,0,83.478,0c-5.576,0-10.793,2.805-13.891,7.435 L7.761,100.174c22.605,0,475.423,0,496.479,0L442.413,7.435z"/> </g> </g> <g> <g> <path d="M0,133.565v361.739C0,504.525,7.475,512,16.696,512h478.609c9.22,0,16.696-7.475,16.696-16.696V133.565 C488.127,133.565,20.291,133.565,0,133.565z M205.913,183.652v-16.696h100.174v16.696c0,9.22-7.475,16.696-16.696,16.696h-66.783 C213.388,200.348,205.913,192.873,205.913,183.652z M216.369,283.155l33.391-33.391c6.521-6.521,17.087-6.521,23.609,0 l33.391,33.39c6.521,6.521,6.521,17.087,0,23.609c-6.521,6.521-17.087,6.521-23.609,0l-4.891-4.891v59.87 c0,9.228-7.467,16.696-16.696,16.696c-9.228,0-16.696-7.467-16.696-16.696v-59.87l-4.892,4.892 c-6.521,6.521-17.087,6.521-23.609,0C209.848,300.242,209.848,289.676,216.369,283.155z M428.522,445.217H228.606 c-8.577,0-16.098-6.291-17.025-14.818c-1.095-10.071,6.746-18.573,16.593-18.573H428.09c8.577,0,16.098,6.291,17.025,14.818 C446.21,436.715,438.369,445.217,428.522,445.217z M440.326,306.763c-6.521,6.521-17.087,6.521-23.609,0l-4.891-4.891v59.87 c0,9.228-7.467,16.696-16.696,16.696s-16.696-7.467-16.696-16.696v-59.87l-4.892,4.892c-6.521,6.521-17.087,6.521-23.609,0 c-6.521-6.521-6.521-17.087,0-23.609l33.391-33.391c6.521-6.521,17.087-6.521,23.609,0l33.391,33.391 C446.848,289.676,446.848,300.241,440.326,306.763z"/> </g> </g> </g>
</svg>